/* XPM */
static char *noname[] = {
/* width height ncolors chars_per_pixel */
"32 32 16 1"
/* colors */
"  c #9F9EA3",
"! c #8F8283",
"# c #F7DCE2",
"$ c #BABABB",
"% c #1B1927",
"& c #1D0A18",
"' c #848289",
"( c #6D6C78",
") c #2C2A38",
"* c #23222D",
"+ c #685A64",
", c #60545B",
"- c #594E5C",
". c #4E444C",
"/ c #000000",
"0 c #42383F",
/* pixels */
"&&&&&&&&&&&&&&&&&&&&&&&&&&&&&&&&",
"&&******************************",
"&&******************************",
"&&**************000*************",
"&&**********0.......00**********",
"&&*********.-,,,,--...0)********",
"&&********-,,,,,,,,-...0)*******",
"&&*******-,,++++,,,,-..00)******",
"&&******-,+++++++,,,-...00******",
"&&*****.,+++++++++,,,-..00)%****",
"&&*****,,+++++++++,,,-...0)*****",
"&&****.,++++++(((++,,-...00*&***",
"&&****.,++++((!''(+,,-...00)%***",
"&&****-,++++('$$ '+,,-...00)%***",
"&&****-,++++( $#$!+,,-...00)%***",
"&&****-,,+++( $$$'+,--..000)%***",
"&&****.,,+++(!  '(+,-...00)*%***",
"&&****.,,,+++(''(+,--...00)*&***",
"&&****.-,,,,+++++,,-...000)*&***",
"&&****0.-,,,,,,,,--....00)*%/***",
"&&****0..-,,,,,,--....000)*&/***",
"&&*****0...-----.....000)*%/****",
"&&*****)0...........000)*%&/****",
"&&******00........0000)**&/*****",
"&&*******)0000000000))**&/******",
"&&********)0000000)))*%&/*******",
"&&*********%))))))**%%&/********",
"&&***********&%%%%%&&/**********",
"&&******************************",
"&&******************************",
"&&******************************",
"&&******************************"
};
